#tb 0: 1/1000
0,          0,          0,        0,      486, 83790b0e7004d8d89b7134ee1a88d885
0,         33,         33,        0,      486, 0baf0bf556ae56d2f4b04567e6ac7ed9
0,         66,         66,        0,      486, c648854a4d49f7e407a2450cf4ba292a
0,        100,        100,        0,      486, 510c3aca23339841ffc72ed5c75d184e
0,        133,        133,        0,      486, 1c1f3116ec4d4ee1ad790652e49233ad
0,        166,        166,        0,      486, f94891f4e16fd32d638a2c696f5922e6
0,        200,        200,        0,      486, e164814c22e38cbe45312dfd48d987fc
0,        233,        233,        0,      486, f582515fcc6c4308ad931d2f6cf371a0
0,        266,        266,        0,      486, 0a446974bd227ee34a1621a2b7852abb
0,        300,        300,        0,      486, beca28bdae8d1fe20036b3646f3109cd
